<svg xmlns="http://www.w3.org/2000/svg" viewBox="0 0 500 500" width="500" height="500">
  <!-- Background Shield -->
  <rect x="0" y="0" width="500" height="500" fill="#f1f1f1"/>
  <path d="M250 20 L470 150 L470 350 L250 480 L30 350 L30 150 Z" fill="#00274d" stroke="#ffffff" stroke-width="10"/>

  <!-- Central Emblem -->
  <circle cx="250" cy="250" r="80" fill="#ffd700" stroke="#00274d" stroke-width="10"/>
  <path d="M250 180 L270 270 L200 230 L300 230 L230 270 Z" fill="#00274d"/>

  <!-- Dividers -->
  <line x1="250" y1="150" x2="250" y2="350" stroke="#ffffff" stroke-width="8"/>
  <line x1="150" y1="250" x2="350" y2="250" stroke="#ffffff" stroke-width="8"/>

  <!-- Laurels -->
  <path d="M100 300 C70 260, 70 180, 100 140" fill="none" stroke="#228b22" stroke-width="6"/>
  <path d="M400 300 C430 260, 430 180, 400 140" fill="none" stroke="#228b22" stroke-width="6"/>
  <path d="M95 295 L105 285 M95 155 L105 165" stroke="#228b22" stroke-width="4"/>
  <path d="M395 295 L405 285 M395 155 L405 165" stroke="#228b22" stroke-width="4"/>

  <!-- Text -->
  <text x="50%" y="475" font-family="serif" font-size="24" fill="#00274d" text-anchor="middle">
    Samland Government
  </text>
</svg>
