<svg xmlns="http://www.w3.org/2000/svg" viewBox="0 0 100 100" width="100" height="100">
  <!-- Background -->
  <rect width="100" height="100" fill="#ffffff" />

  <!-- Shield Base -->
  <path d="M50 5 L90 30 V70 L50 95 L10 70 V30 Z" fill="#004080" stroke="#ce1126" stroke-width="3" />

  <!-- Upper Section: Innovation -->
  <circle cx="50" cy="25" r="8" fill="#ffffff" stroke="#ce1126" stroke-width="2" />
  <path d="M50 17 L50 10 M50 33 L50 40 M42 25 L35 25 M58 25 L65 25" stroke="#004080" stroke-width="2" />

  <!-- Centre Section: Inclusivity -->
  <path d="M40 50 Q50 35 60 50 T70 50" fill="#ffffff" stroke="#ce1126" stroke-width="2" />
  <circle cx="50" cy="50" r="5" fill="#004080" />

  <!-- Lower Section: Sustainability -->
  <path d="M50 95 C55 85 65 75 50 65 C35 75 45 85 50 95 Z" fill="#004080" />
  <line x1="50" y1="65" x2="50" y2="95" stroke="#ffffff" stroke-width="2" />
</svg>
