<svg xmlns="http://www.w3.org/2000/svg" viewBox="0 0 100 100" width="100" height="100">
  <!-- Background -->
  <rect width="100" height="100" fill="#ffffff" />

  <!-- Shield Base -->
  <path d="M50 5 L95 30 V70 L50 95 L5 70 V30 Z" fill="#004080" stroke="#ce1126" stroke-width="2" />

  <!-- Inclusivity Symbol (Circle and hands) -->
  <circle cx="50" cy="50" r="12" fill="#ffffff" stroke="#ce1126" stroke-width="2" />
  <path d="M38 50 C38 45 42 42 46 42" stroke="#ce1126" stroke-width="2" fill="none" />
  <path d="M62 50 C62 45 58 42 54 42" stroke="#ce1126" stroke-width="2" fill="none" />
  <path d="M46 58 C46 55 50 53 54 58" stroke="#ce1126" stroke-width="2" fill="none" />

  <!-- Innovation Symbol (Gear) -->
  <circle cx="50" cy="35" r="5" fill="#004080" />
  <path d="M50 30 L50 25 M50 40 L50 45 M45 35 L40 35 M55 35 L60 35" stroke="#ce1126" stroke-width="2" />

  <!-- Sustainability Symbol (Leaf) -->
  <path d="M50 70 C55 65 55 55 50 50 C45 55 45 65 50 70 Z" fill="#004080" />
  <line x1="50" y1="50" x2="50" y2="70" stroke="#ffffff" stroke-width="2" />
</svg>
